ffmpeg version 3.4.8-0ubuntu0.2 Copyright (c) 2000-2020 the FFmpeg developers
  built with gcc 7 (Ubuntu 7.5.0-3ubuntu1~18.04)
  configuration: --prefix=/usr --extra-version=0ubuntu0.2 --toolchain=hardened --libdir=/usr/lib/x86_64-linux-gnu --incdir=/usr/include/x86_64-linux-gnu --enable-gpl --disable-stripping --enable-avresample --enable-avisynth --enable-gnutls --enable-ladspa --enable-libass --enable-libbluray --enable-libbs2b --enable-libcaca --enable-libcdio --enable-libflite --enable-libfontconfig --enable-libfreetype --enable-libfribidi --enable-libgme --enable-libgsm --enable-libmp3lame --enable-libmysofa --enable-libopenjpeg --enable-libopenmpt --enable-libopus --enable-libpulse --enable-librubberband --enable-librsvg --enable-libshine --enable-libsnappy --enable-libsoxr --enable-libspeex --enable-libssh --enable-libtheora --enable-libtwolame --enable-libvorbis --enable-libvpx --enable-libwavpack --enable-libwebp --enable-libx265 --enable-libxml2 --enable-libxvid --enable-libzmq --enable-libzvbi --enable-omx --enable-openal --enable-opengl --enable-sdl2 --enable-libdc1394 --enable-libdrm --enable-libiec61883 --enable-chromaprint --enable-frei0r --enable-libopencv --enable-libx264 --enable-shared
  libavutil      55. 78.100 / 55. 78.100
  libavcodec     57.107.100 / 57.107.100
  libavformat    57. 83.100 / 57. 83.100
  libavdevice    57. 10.100 / 57. 10.100
  libavfilter     6.107.100 /  6.107.100
  libavresample   3.  7.  0 /  3.  7.  0
  libswscale      4.  8.100 /  4.  8.100
  libswresample   2.  9.100 /  2.  9.100
  libpostproc    54.  7.100 / 54.  7.100
[rawvideo @ 0x5561c3feaa20] Estimating duration from bitrate, this may be inaccurate
Input #0, rawvideo, from '../../SVC-Encoder-20220109T061506Z-001/SVC-Encoder/Dataset/RollerCoaster/ERP_8x8/tile_yuv/Tile_40_480x240.yuv':
  Duration: 00:00:10.00, start: 0.000000, bitrate: 41472 kb/s
    Stream #0:0: Video: rawvideo (I420 / 0x30323449), yuv420p, 480x240, 41472 kb/s, 30 tbr, 30 tbn, 30 tbc
Stream mapping:
  Stream #0:0 -> #0:0 (rawvideo (native) -> h264 (libx264))
Press [q] to stop, [?] for help
[libx264 @ 0x5561c3ff7c60] using cpu capabilities: MMX2 SSE2Fast LZCNT SSSE3 SSE4.2 AVX
[libx264 @ 0x5561c3ff7c60] profile High, level 2.1
Output #0, rawvideo, to 'RollerCoaster_Tile_40_480x240_x264_QP_28.h264':
  Metadata:
    encoder         : Lavf57.83.100
    Stream #0:0: Video: h264 (libx264), yuv420p, 480x240, q=-1--1, 30 fps, 30 tbn, 30 tbc
    Metadata:
      encoder         : Lavc57.107.100 libx264
    Side data:
      cpb: bitrate max/min/avg: 0/0/0 buffer size: 0 vbv_delay: -1
frame=  145 fps=0.0 q=34.0 PSNR=Y:nan U:nan V:nan *:nan size=     100kB time=00:00:03.40 bitrate= 241.8kbits/s speed=6.76x    frame=  281 fps=280 q=34.0 PSNR=Y:nan U:nan V:nan *:nan size=     208kB time=00:00:07.93 bitrate= 214.8kbits/s speed= 7.9x    frame=  300 fps=250 q=34.0 LPSNR=Y:inf U:inf V:inf *:inf size=     263kB time=00:00:09.93 bitrate= 216.8kbits/s speed=8.26x    
video:263kB audio:0kB subtitle:0kB other streams:0kB global headers:0kB muxing overhead: 0.000000%
[libx264 @ 0x5561c3ff7c60] frame I:2     Avg QP:25.67  size: 14461  PSNR Mean Y:41.55 U:47.14 V:47.24 Avg:42.76 Global:42.74
[libx264 @ 0x5561c3ff7c60] frame P:76    Avg QP:27.14  size:  2158  PSNR Mean Y:39.45 U:47.16 V:47.21 Avg:40.86 Global:40.82
[libx264 @ 0x5561c3ff7c60] frame B:222   Avg QP:33.44  size:   344  PSNR Mean Y:38.87 U:47.02 V:47.04 Avg:40.31 Global:40.29
[libx264 @ 0x5561c3ff7c60] consecutive B-frames:  1.0%  0.7%  1.0% 97.3%
[libx264 @ 0x5561c3ff7c60] mb I  I16..4:  7.7% 60.7% 31.7%
[libx264 @ 0x5561c3ff7c60] mb P  I16..4:  0.3%  0.7%  0.4%  P16..4: 44.6% 19.3%  9.7%  0.0%  0.0%    skip:25.2%
[libx264 @ 0x5561c3ff7c60] mb B  I16..4:  0.0%  0.0%  0.0%  B16..8: 41.1%  4.1%  0.4%  direct: 0.2%  skip:54.1%  L0:43.0% L1:51.6% BI: 5.4%
[libx264 @ 0x5561c3ff7c60] 8x8 transform intra:56.2% inter:67.6%
[libx264 @ 0x5561c3ff7c60] coded y,uvDC,uvAC intra: 77.6% 72.9% 25.2% inter: 7.8% 3.8% 0.1%
[libx264 @ 0x5561c3ff7c60] i16 v,h,dc,p: 23% 16% 24% 37%
[libx264 @ 0x5561c3ff7c60] i8 v,h,dc,ddl,ddr,vr,hd,vl,hu:  9% 30% 13%  4%  9%  5% 10%  6% 14%
[libx264 @ 0x5561c3ff7c60] i4 v,h,dc,ddl,ddr,vr,hd,vl,hu: 10% 31% 13%  5% 10%  7% 11%  3% 10%
[libx264 @ 0x5561c3ff7c60] i8c dc,h,v,p: 43% 26% 17% 14%
[libx264 @ 0x5561c3ff7c60] Weighted P-Frames: Y:0.0% UV:0.0%
[libx264 @ 0x5561c3ff7c60] ref P L0: 58.5% 17.6% 18.5%  5.4%
[libx264 @ 0x5561c3ff7c60] ref B L0: 83.7% 14.0%  2.3%
[libx264 @ 0x5561c3ff7c60] ref B L1: 86.5% 13.5%
[libx264 @ 0x5561c3ff7c60] PSNR Mean Y:39.037 U:47.053 V:47.082 Avg:40.466 Global:40.428 kb/s:215.39
